<svg width="239" height="71" viewBox="0 0 239 71" fill="none" xmlns="http://www.w3.org/2000/svg">
<path d="M0 9L15 17.6603V0.339746L0 9ZM208.5 10.5C209.328 10.5 210 9.82843 210 9C210 8.17157 209.328 7.5 208.5 7.5V10.5ZM13.5 10.5H208.5V7.5H13.5V10.5Z" fill="#EDF6FF"/>
<path d="M14.5 35.5L29.5 44.1603V26.8397L14.5 35.5ZM223 37C223.828 37 224.5 36.3284 224.5 35.5C224.5 34.6716 223.828 34 223 34V37ZM28 37H223V34H28V37Z" fill="#EDF6FF"/>
<path d="M29 62L44 70.6603V53.3397L29 62ZM237.5 63.5C238.328 63.5 239 62.8284 239 62C239 61.1716 238.328 60.5 237.5 60.5V63.5ZM42.5 63.5H237.5V60.5H42.5V63.5Z" fill="#EDF6FF"/>
</svg>
