<svg width="43" height="43" viewBox="0 0 43 43" fill="none" xmlns="http://www.w3.org/2000/svg">
<path d="M37.5188 12.7204C37.4899 12.4275 37.387 12.1467 37.22 11.9044C37.0529 11.662 36.8271 11.466 36.5636 11.3347L22.6192 4.36249C22.377 4.24131 22.11 4.17822 21.8392 4.17822C21.5684 4.17822 21.3013 4.24131 21.0592 4.36249L7.11472 11.3347C6.85199 11.4668 6.62686 11.663 6.46019 11.9052C6.29351 12.1475 6.1907 12.4279 6.16127 12.7204C6.14209 12.9069 4.48619 31.4879 21.1324 38.8907C21.3548 38.9911 21.596 39.043 21.8401 39.043C22.0841 39.043 22.3253 38.9911 22.5477 38.8907C39.1939 31.4879 37.538 12.9087 37.5188 12.7204ZM21.8401 35.3749C10.0413 29.6717 9.48353 17.4999 9.5794 14.0016L21.8401 7.87126L34.092 13.9981C34.1565 17.465 33.5203 29.717 21.8401 35.3749Z" fill="#EDF6FF"/>
<path d="M20.097 22.6315L16.1002 18.6347L13.6355 21.0994L20.097 27.5609L30.0446 17.6132L27.5799 15.1486L20.097 22.6315Z" fill="#EDF6FF"/>
</svg>
