<svg width="96" height="100" viewBox="0 0 96 100" fill="none" xmlns="http://www.w3.org/2000/svg">
<g clip-path="url(#clip0_1_1798)">
<path d="M47.8261 4C41.3043 4 36.2092 6.40036 32.5408 11.2011C28.8723 16.0018 27.038 22.1386 27.038 29.6114C26.9928 38.8958 29.9819 46.2554 36.0054 51.6902C36.7754 52.4149 37.0471 53.3433 36.8207 54.4755L35.2582 57.7364C34.76 58.8234 34.024 59.6726 33.0503 60.284C32.0765 60.8954 30.0272 61.7672 26.9022 62.8995C26.7663 62.9448 23.9017 63.8732 18.3084 65.6848C12.7151 67.4964 9.73732 68.4928 9.375 68.6739C5.57065 70.2591 3.07971 71.9121 1.90217 73.6332C0.634058 76.4864 0 83.7102 0 95.3044H95.6522C95.6522 83.7102 95.0181 76.4864 93.75 73.6332C92.5725 71.9121 90.0815 70.2591 86.2772 68.6739C85.9149 68.4928 82.937 67.4964 77.3438 65.6848C71.7505 63.8732 68.8859 62.9448 68.75 62.8995C65.625 61.7672 63.5756 60.8954 62.6019 60.284C61.6282 59.6726 60.8922 58.8234 60.394 57.7364L58.8315 54.4755C58.6051 53.3433 58.8768 52.4149 59.6467 51.6902C65.6703 46.2554 68.6594 38.8958 68.6141 29.6114C68.6141 22.1386 66.7799 16.0018 63.1114 11.2011C59.4429 6.40036 54.3478 4 47.8261 4Z" fill="black"/>
</g>
<defs>
<clipPath id="clip0_1_1798">
<rect width="95.6522" height="100" fill="white"/>
</clipPath>
</defs>
</svg>
